{
    "asset" : {
        "generator" : "Khronos glTF Blender I/O v1.3.48",
        "version" : "2.0"
    },
    "scene" : 0,
    "scenes" : [
        {
            "name" : "Scene",
            "nodes" : [
                0,
                1,
                2,
                3,
                4,
                5,
                6,
                7
            ]
        }
    ],
    "nodes" : [
        {
            "name" : "Light",
            "rotation" : [
                0.16907575726509094,
                0.7558803558349609,
                -0.27217137813568115,
                0.570947527885437
            ],
            "translation" : [
                4.076245307922363,
                5.903861999511719,
                -1.0054539442062378
            ]
        },
        {
            "name" : "Camera",
            "rotation" : [
                0.483536034822464,
                0.33687159419059753,
                -0.20870360732078552,
                0.7804827094078064
            ],
            "translation" : [
                7.358891487121582,
                4.958309173583984,
                6.925790786743164
            ]
        },
        {
            "name" : "Default_Camera",
            "scale" : [
                0,
                0,
                0
            ]
        },
        {
            "name" : "Image_Based_Light_1",
            "rotation" : [
                0.7071068286895752,
                0,
                0,
                0.7071067094802856
            ],
            "scale" : [
                0.0010000000474974513,
                0.0010000000474974513,
                0.0010000000474974513
            ]
        },
        {
            "name" : "Infinite_Light_1",
            "scale" : [
                0,
                0,
                0
            ]
        },
        {
            "mesh" : 0,
            "name" : "uma_\u00e1rvore",
            "rotation" : [
                0.704168438911438,
                0.06439599394798279,
                -0.06439606100320816,
                0.7041683793067932
            ],
            "scale" : [
                0.0017080092802643776,
                0.0018425460439175367,
                0.0016443579224869609
            ],
            "translation" : [
                0.04558208957314491,
                -0.20959599316120148,
                1.7139099836349487
            ]
        },
        {
            "name" : "Camera.001",
            "rotation" : [
                0.483536034822464,
                0.33687159419059753,
                -0.20870360732078552,
                0.7804827094078064
            ],
            "translation" : [
                7.358891010284424,
                4.958309173583984,
                6.925790786743164
            ]
        },
        {
            "name" : "Light.001",
            "rotation" : [
                0.16907577216625214,
                0.7558803558349609,
                -0.27217137813568115,
                0.5709474682807922
            ],
            "translation" : [
                4.076244831085205,
                5.903861999511719,
                -1.0054539442062378
            ]
        }
    ],
    "materials" : [
        {
            "doubleSided" : true,
            "emissiveFactor" : [
                0,
                0,
                0
            ],
            "name" : "uma_\u00e1rvore_Front_Inflation_Material",
            "pbrMetallicRoughness" : {
                "baseColorFactor" : [
                    0.5872129797935486,
                    0.6431369781494141,
                    0.27743998169898987,
                    1
                ],
                "metallicFactor" : 0,
                "roughnessFactor" : 0.5
            }
        },
        {
            "doubleSided" : true,
            "emissiveFactor" : [
                0,
                0,
                0
            ],
            "name" : "uma_\u00e1rvore_Extrusion_Material",
            "pbrMetallicRoughness" : {
                "baseColorFactor" : [
                    0.5872129797935486,
                    0.6431369781494141,
                    0.27743998169898987,
                    1
                ],
                "metallicFactor" : 0,
                "roughnessFactor" : 0.5
            }
        },
        {
            "doubleSided" : true,
            "emissiveFactor" : [
                0,
                0,
                0
            ],
            "name" : "uma_\u00e1rvore_Back_Inflation_Material",
            "pbrMetallicRoughness" : {
                "baseColorFactor" : [
                    0.5872129797935486,
                    0.6431369781494141,
                    0.27743998169898987,
                    1
                ],
                "metallicFactor" : 0,
                "roughnessFactor" : 0.5
            }
        }
    ],
    "meshes" : [
        {
            "name" : "uma_\u00e1rvore",
            "primitives" : [
                {
                    "attributes" : {
                        "POSITION" : 0,
                        "NORMAL" : 1,
                        "TEXCOORD_0" : 2
                    },
                    "indices" : 3,
                    "material" : 0
                },
                {
                    "attributes" : {
                        "POSITION" : 4,
                        "NORMAL" : 5,
                        "TEXCOORD_0" : 6
                    },
                    "indices" : 7,
                    "material" : 1
                },
                {
                    "attributes" : {
                        "POSITION" : 8,
                        "NORMAL" : 9,
                        "TEXCOORD_0" : 10
                    },
                    "indices" : 11,
                    "material" : 2
                }
            ]
        }
    ],
    "accessors" : [
        {
            "bufferView" : 0,
            "componentType" : 5126,
            "count" : 11155,
            "max" : [
                1988.9000244140625,
                16.157299041748047,
                -913.9820556640625
            ],
            "min" : [
                1613.0599365234375,
                0,
                -4037.10009765625
            ],
            "type" : "VEC3"
        },
        {
            "bufferView" : 1,
            "componentType" : 5126,
            "count" : 11155,
            "type" : "VEC3"
        },
        {
            "bufferView" : 2,
            "componentType" : 5126,
            "count" : 11155,
            "type" : "VEC2"
        },
        {
            "bufferView" : 3,
            "componentType" : 5123,
            "count" : 64041,
            "type" : "SCALAR"
        },
        {
            "bufferView" : 4,
            "componentType" : 5126,
            "count" : 2172,
            "max" : [
                1988.9000244140625,
                0,
                -913.9820556640625
            ],
            "min" : [
                1613.0599365234375,
                -156.614013671875,
                -4037.10009765625
            ],
            "type" : "VEC3"
        },
        {
            "bufferView" : 5,
            "componentType" : 5126,
            "count" : 2172,
            "type" : "VEC3"
        },
        {
            "bufferView" : 6,
            "componentType" : 5126,
            "count" : 2172,
            "type" : "VEC2"
        },
        {
            "bufferView" : 7,
            "componentType" : 5123,
            "count" : 5730,
            "type" : "SCALAR"
        },
        {
            "bufferView" : 8,
            "componentType" : 5126,
            "count" : 6339,
            "max" : [
                1988.9000244140625,
                -156.614013671875,
                -913.9820556640625
            ],
            "min" : [
                1613.0599365234375,
                -156.614013671875,
                -4037.10009765625
            ],
            "type" : "VEC3"
        },
        {
            "bufferView" : 9,
            "componentType" : 5126,
            "count" : 6339,
            "type" : "VEC3"
        },
        {
            "bufferView" : 10,
            "componentType" : 5126,
            "count" : 6339,
            "type" : "VEC2"
        },
        {
            "bufferView" : 11,
            "componentType" : 5123,
            "count" : 8289,
            "type" : "SCALAR"
        }
    ],
    "bufferViews" : [
        {
            "buffer" : 0,
            "byteLength" : 133860,
            "byteOffset" : 0
        },
        {
            "buffer" : 0,
            "byteLength" : 133860,
            "byteOffset" : 133860
        },
        {
            "buffer" : 0,
            "byteLength" : 89240,
            "byteOffset" : 267720
        },
        {
            "buffer" : 0,
            "byteLength" : 128082,
            "byteOffset" : 356960
        },
        {
            "buffer" : 0,
            "byteLength" : 26064,
            "byteOffset" : 485044
        },
        {
            "buffer" : 0,
            "byteLength" : 26064,
            "byteOffset" : 511108
        },
        {
            "buffer" : 0,
            "byteLength" : 17376,
            "byteOffset" : 537172
        },
        {
            "buffer" : 0,
            "byteLength" : 11460,
            "byteOffset" : 554548
        },
        {
            "buffer" : 0,
            "byteLength" : 76068,
            "byteOffset" : 566008
        },
        {
            "buffer" : 0,
            "byteLength" : 76068,
            "byteOffset" : 642076
        },
        {
            "buffer" : 0,
            "byteLength" : 50712,
            "byteOffset" : 718144
        },
        {
            "buffer" : 0,
            "byteLength" : 16578,
            "byteOffset" : 768856
        }
    ],
    "buffers" : [
        {
            "byteLength" : 785436,
            "uri" : "data:application/octet-stream;base64,"
        }
    ]
}
