{
    "asset" : {
        "generator" : "Khronos glTF Blender I/O v1.3.48",
        "version" : "2.0"
    },
    "scene" : 0,
    "scenes" : [
        {
            "name" : "Scene",
            "nodes" : [
                0,
                1,
                2,
                3,
                4,
                5
            ]
        }
    ],
    "nodes" : [
        {
            "name" : "Camera",
            "rotation" : [
                0.5385646224021912,
                0.18052834272384644,
                -0.11939691007137299,
                0.8143107295036316
            ],
            "translation" : [
                7.358891487121582,
                4.958309173583984,
                6.925790786743164
            ]
        },
        {
            "mesh" : 0,
            "name" : "particulas",
            "scale" : [
                0.8968049883842468,
                0.896805465221405,
                0.8968055248260498
            ]
        },
        {
            "name" : "Field",
            "translation" : [
                0,
                2,
                0
            ]
        },
        {
            "mesh" : 1,
            "name" : "Icosphere",
            "rotation" : [
                0,
                0,
                -0.7071068286895752,
                0.7071068286895752
            ],
            "scale" : [
                0.284559428691864,
                0.24890194833278656,
                0.24890194833278656
            ],
            "translation" : [
                -0.2800101637840271,
                -0.537538468837738,
                -19.010591506958008
            ]
        },
        {
            "mesh" : 2,
            "name" : "tree_Mesh",
            "rotation" : [
                0.7071068286895752,
                0,
                0,
                0.7071067094802856
            ],
            "scale" : [
                0.30046677589416504,
                0.30046677589416504,
                0.30046677589416504
            ],
            "translation" : [
                2.8820486068725586,
                0,
                -1.307271122932434
            ]
        },
        {
            "mesh" : 3,
            "name" : "leaves",
            "rotation" : [
                0.7071068286895752,
                0,
                0,
                0.7071067094802856
            ],
            "scale" : [
                0.30046677589416504,
                0.30046677589416504,
                0.30046677589416504
            ],
            "translation" : [
                2.8820486068725586,
                0,
                -1.307271122932434
            ]
        }
    ],
    "materials" : [
        {
            "doubleSided" : true,
            "emissiveFactor" : [
                1,
                1,
                1
            ],
            "name" : "ico",
            "pbrMetallicRoughness" : {}
        },
        {
            "doubleSided" : true,
            "emissiveFactor" : [
                0,
                0,
                0
            ],
            "name" : "Material.002",
            "pbrMetallicRoughness" : {
                "baseColorFactor" : [
                    0.800000011920929,
                    0.800000011920929,
                    0.800000011920929,
                    1
                ],
                "metallicFactor" : 0,
                "roughnessFactor" : 0.5
            }
        },
        {
            "doubleSided" : true,
            "emissiveFactor" : [
                0,
                0,
                0
            ],
            "name" : "Material.001",
            "pbrMetallicRoughness" : {
                "baseColorFactor" : [
                    0.030616000294685364,
                    0.17886100709438324,
                    0,
                    1
                ],
                "metallicFactor" : 0,
                "roughnessFactor" : 0.5
            }
        }
    ],
    "meshes" : [
        {
            "name" : "Plane.001",
            "primitives" : [
                {
                    "attributes" : {
                        "POSITION" : 0,
                        "NORMAL" : 1,
                        "TEXCOORD_0" : 2
                    },
                    "indices" : 3
                }
            ]
        },
        {
            "name" : "Icosphere",
            "primitives" : [
                {
                    "attributes" : {
                        "POSITION" : 4,
                        "NORMAL" : 5,
                        "TEXCOORD_0" : 6
                    },
                    "indices" : 7,
                    "material" : 0
                }
            ]
        },
        {
            "name" : "tree_Mesh",
            "primitives" : [
                {
                    "attributes" : {
                        "POSITION" : 8,
                        "NORMAL" : 9
                    },
                    "indices" : 10,
                    "material" : 1
                }
            ]
        },
        {
            "name" : "leaves",
            "primitives" : [
                {
                    "attributes" : {
                        "POSITION" : 11,
                        "NORMAL" : 12
                    },
                    "indices" : 13,
                    "material" : 2
                }
            ]
        }
    ],
    "accessors" : [
        {
            "bufferView" : 0,
            "componentType" : 5126,
            "count" : 4,
            "max" : [
                5,
                0,
                5
            ],
            "min" : [
                -5,
                0,
                -5
            ],
            "type" : "VEC3"
        },
        {
            "bufferView" : 1,
            "componentType" : 5126,
            "count" : 4,
            "type" : "VEC3"
        },
        {
            "bufferView" : 2,
            "componentType" : 5126,
            "count" : 4,
            "type" : "VEC2"
        },
        {
            "bufferView" : 3,
            "componentType" : 5123,
            "count" : 6,
            "type" : "SCALAR"
        },
        {
            "bufferView" : 4,
            "componentType" : 5126,
            "count" : 60,
            "max" : [
                0.8944249749183655,
                1,
                0.8506399989128113
            ],
            "min" : [
                -0.8944249749183655,
                -1,
                -0.8506399989128113
            ],
            "type" : "VEC3"
        },
        {
            "bufferView" : 5,
            "componentType" : 5126,
            "count" : 60,
            "type" : "VEC3"
        },
        {
            "bufferView" : 6,
            "componentType" : 5126,
            "count" : 60,
            "type" : "VEC2"
        },
        {
            "bufferView" : 7,
            "componentType" : 5123,
            "count" : 60,
            "type" : "SCALAR"
        },
        {
            "bufferView" : 8,
            "componentType" : 5126,
            "count" : 26720,
            "max" : [
                1.9116389751434326,
                2.0099270343780518,
                0.006430000066757202
            ],
            "min" : [
                -2.215363025665283,
                -1.7630460262298584,
                -7.8026909828186035
            ],
            "type" : "VEC3"
        },
        {
            "bufferView" : 9,
            "componentType" : 5126,
            "count" : 26720,
            "type" : "VEC3"
        },
        {
            "bufferView" : 10,
            "componentType" : 5123,
            "count" : 121056,
            "type" : "SCALAR"
        },
        {
            "bufferView" : 11,
            "componentType" : 5126,
            "count" : 111158,
            "max" : [
                2.0621519088745117,
                2.185472011566162,
                -0.20927299559116364
            ],
            "min" : [
                -2.31469988822937,
                -1.9159120321273804,
                -7.9392290115356445
            ],
            "type" : "VEC3"
        },
        {
            "bufferView" : 12,
            "componentType" : 5126,
            "count" : 111158,
            "type" : "VEC3"
        },
        {
            "bufferView" : 13,
            "componentType" : 5125,
            "count" : 166740,
            "type" : "SCALAR"
        }
    ],
    "bufferViews" : [
        {
            "buffer" : 0,
            "byteLength" : 48,
            "byteOffset" : 0
        },
        {
            "buffer" : 0,
            "byteLength" : 48,
            "byteOffset" : 48
        },
        {
            "buffer" : 0,
            "byteLength" : 32,
            "byteOffset" : 96
        },
        {
            "buffer" : 0,
            "byteLength" : 12,
            "byteOffset" : 128
        },
        {
            "buffer" : 0,
            "byteLength" : 720,
            "byteOffset" : 140
        },
        {
            "buffer" : 0,
            "byteLength" : 720,
            "byteOffset" : 860
        },
        {
            "buffer" : 0,
            "byteLength" : 480,
            "byteOffset" : 1580
        },
        {
            "buffer" : 0,
            "byteLength" : 120,
            "byteOffset" : 2060
        },
        {
            "buffer" : 0,
            "byteLength" : 320640,
            "byteOffset" : 2180
        },
        {
            "buffer" : 0,
            "byteLength" : 320640,
            "byteOffset" : 322820
        },
        {
            "buffer" : 0,
            "byteLength" : 242112,
            "byteOffset" : 643460
        },
        {
            "buffer" : 0,
            "byteLength" : 1333896,
            "byteOffset" : 885572
        },
        {
            "buffer" : 0,
            "byteLength" : 1333896,
            "byteOffset" : 2219468
        },
        {
            "buffer" : 0,
            "byteLength" : 666960,
            "byteOffset" : 3553364
        }
    ],
    "buffers" : [
        {
            "byteLength" : 4220324,
            "uri" : "s\u00f3 fogo_teste_18maio2021.bin"
        }
    ]
}
